<svg width="29" height="29" viewBox="0 0 29 29" fill="none" xmlns="http://www.w3.org/2000/svg">
<path d="M20.75 2H8.25C4.79822 2 2 4.79822 2 8.25V20.75C2 24.2018 4.79822 27 8.25 27H20.75C24.2018 27 27 24.2018 27 20.75V8.25C27 4.79822 24.2018 2 20.75 2Z" stroke="#757575" stroke-width="3" stroke-linecap="round" stroke-linejoin="round"/>
<path d="M19.4996 13.7114C19.6539 14.7517 19.4762 15.8142 18.9918 16.7477C18.5075 17.6812 17.7411 18.4382 16.8017 18.911C15.8623 19.3838 14.7977 19.5484 13.7594 19.3813C12.721 19.2142 11.7618 18.724 11.0182 17.9804C10.2745 17.2367 9.7843 16.2775 9.61722 15.2392C9.45014 14.2009 9.61472 13.1363 10.0875 12.1969C10.5604 11.2575 11.3174 10.4911 12.2509 10.0067C13.1844 9.52234 14.2468 9.34465 15.2871 9.49891C16.3483 9.65627 17.3307 10.1507 18.0893 10.9093C18.8478 11.6678 19.3423 12.6503 19.4996 13.7114Z" stroke="#757575" stroke-width="3" stroke-linecap="round" stroke-linejoin="round"/>
<path d="M21.375 7.625H21.3875" stroke="#757575" stroke-width="3" stroke-linecap="round" stroke-linejoin="round"/>
</svg>
