<svg width="30" height="25" viewBox="0 0 30 25" fill="none" xmlns="http://www.w3.org/2000/svg">
<path d="M21 7.74805C23.3869 7.74805 25.6761 8.56438 27.364 10.0175C29.0518 11.4705 30 13.4413 30 15.4963V24.5359H24V15.4963C24 14.8113 23.6839 14.1544 23.1213 13.67C22.5587 13.1857 21.7956 12.9136 21 12.9136C20.2044 12.9136 19.4413 13.1857 18.8787 13.67C18.3161 14.1544 18 14.8113 18 15.4963V24.5359H12V15.4963C12 13.4413 12.9482 11.4705 14.636 10.0175C16.3239 8.56438 18.6131 7.74805 21 7.74805Z" fill="#757575"/>
<path d="M6 9.03955H0V24.5361H6V9.03955Z" fill="#757575"/>
<path d="M3 5.16551C4.65685 5.16551 6 4.00917 6 2.58275C6 1.15634 4.65685 0 3 0C1.34315 0 0 1.15634 0 2.58275C0 4.00917 1.34315 5.16551 3 5.16551Z" fill="#757575"/>
</svg>
