<svg width="50" height="50" viewBox="0 0 50 50" fill="none" xmlns="http://www.w3.org/2000/svg">
<circle cx="25" cy="25" r="25"/>
<path d="M16.75 28.9031H15.5C14.837 28.9031 14.2011 28.6637 13.7322 28.2377C13.2634 27.8116 13 27.2337 13 26.6312V15.2719C13 14.6693 13.2634 14.0915 13.7322 13.6654C14.2011 13.2394 14.837 13 15.5 13H35.5C36.163 13 36.7989 13.2394 37.2678 13.6654C37.7366 14.0915 38 14.6693 38 15.2719V26.6312C38 27.2337 37.7366 27.8116 37.2678 28.2377C36.7989 28.6637 36.163 28.9031 35.5 28.9031H34.25" stroke="#08546C" stroke-width="3" stroke-linecap="round" stroke-linejoin="round"/>
<path d="M25.25 30L31.5 36.8156H19L25.25 30Z" stroke="#08546C" stroke-width="3" stroke-linecap="round" stroke-linejoin="round"/>
</svg>
