<svg width="35" height="25" viewBox="0 0 35 25" fill="#757575" xmlns="http://www.w3.org/2000/svg">
<path d="M35 0.0137502C33.4765 0.937397 31.7897 1.64384 30.0045 2.10587C29.0464 1.15896 27.773 0.487816 26.3566 0.183207C24.9403 -0.121403 23.4492 -0.0447805 22.0851 0.402711C20.7211 0.850203 19.5498 1.64697 18.7297 2.68526C17.9097 3.72355 17.4804 4.95325 17.5 6.20807V7.57546C14.7042 7.63777 11.9338 7.10482 9.4357 6.02408C6.93755 4.94333 4.78914 3.34834 3.18182 1.38115C3.18182 1.38115 -3.18182 13.6877 11.1364 19.1573C7.85993 21.0689 3.95684 22.0274 0 21.8921C14.3182 28.7291 31.8182 21.8921 31.8182 6.16704C31.8167 5.78616 31.7741 5.40622 31.6909 5.0321C33.3146 3.65581 34.4604 1.91814 35 0.0137502Z" fill="#757575"/>
</svg>
